<?xml version="1.0" encoding="utf-8"?>
<!-- Generator: Adobe Illustrator 18.1.0, SVG Export Plug-In . SVG Version: 6.00 Build 0)  -->
<svg version="1.1" id="Layer_1" xmlns="http://www.w3.org/2000/svg" xmlns:xlink="http://www.w3.org/1999/xlink" x="0px" y="0px"
	 viewBox="0 0 50 50" enable-background="new 0 0 50 50" xml:space="preserve">
<path fill="#424241" d="M25,50c13.8,0,25-11.2,25-25S38.8,0,25,0C11.2,0,0,11.2,0,25C0,38.8,11.2,50,25,50z M25,2.5
	c12.5,0,22.5,10,22.5,22.5S37.5,47.5,25,47.5S2.5,37.5,2.5,25S12.5,2.5,25,2.5z M31.2,33.8L22.5,25l8.8-8.8l-3.8-3.8L15,25
	l12.5,12.5L31.2,33.8z"/>
</svg>
