<?xml version="1.0" encoding="utf-8"?>
<!-- Generator: Adobe Illustrator 18.1.0, SVG Export Plug-In . SVG Version: 6.00 Build 0)  -->
<svg version="1.1" id="Layer_1" xmlns="http://www.w3.org/2000/svg" xmlns:xlink="http://www.w3.org/1999/xlink" x="0px" y="0px"
	 viewBox="0 0 20 20" enable-background="new 0 0 20 20" xml:space="preserve">
<path fill-rule="evenodd" clip-rule="evenodd" fill="#424241" d="M10,0C4.5,0,0,4.5,0,10c0,5.5,4.5,10,10,10c5.5,0,10-4.5,10-10
	C20,4.5,15.5,0,10,0z M10,19c-5,0-9-4-9-9c0-5,4-9,9-9s9,4,9,9C19,15,15,19,10,19z M7.5,6.5L11,10l-3.5,3.5L9,15l5-5L9,5L7.5,6.5z"
	/>
</svg>
