<?xml version="1.0" encoding="utf-8"?>
<!-- Generator: Adobe Illustrator 18.1.0, SVG Export Plug-In . SVG Version: 6.00 Build 0)  -->
<svg version="1.1" id="Layer_1" xmlns="http://www.w3.org/2000/svg" xmlns:xlink="http://www.w3.org/1999/xlink" x="0px" y="0px"
	 viewBox="0 0 19 19" enable-background="new 0 0 19 19" xml:space="preserve">
<g id="SVG:question_x5F_result_x5F_s">
	<g>
		<path fill-rule="evenodd" clip-rule="evenodd" fill="#424241" d="M9.5,0C4.3,0,0,4.3,0,9.5S4.3,19,9.5,19S19,14.7,19,9.5
			S14.7,0,9.5,0z M9.5,18C4.8,18,1,14.2,1,9.5S4.8,1,9.5,1S18,4.8,18,9.5S14.2,18,9.5,18z M9,13l0,1l1,0l0-1L9,13z M9.6,4.4
			C8.7,4.5,7,5.2,7,8h1c0-0.3,0.1-2.5,2-2.5c1,0,1.9,0.5,1.8,1.5c0,0.8-1,1.2-1.8,2c-1.2,1.2-1,2-1,3h1c0-0.1-0.3-1.4,0.9-2.4
			c1.2-0.9,1.9-1.6,2-2.5C13.2,4.8,10.8,4.2,9.6,4.4z"/>
	</g>
</g>
</svg>
