<?xml version="1.0" encoding="utf-8"?>
<!-- Generator: Adobe Illustrator 18.1.0, SVG Export Plug-In . SVG Version: 6.00 Build 0)  -->
<svg version="1.1" id="Layer_1" xmlns="http://www.w3.org/2000/svg" xmlns:xlink="http://www.w3.org/1999/xlink" x="0px" y="0px"
	 viewBox="0 0 34 34" enable-background="new 0 0 34 34" xml:space="preserve">
<path fill-rule="evenodd" clip-rule="evenodd" fill="#424241" d="M17,0C7.6,0,0,7.6,0,17c0,9.4,7.6,17,17,17c9.4,0,17-7.6,17-17
	C34,7.6,26.4,0,17,0z M17,33C8.2,33,1,25.8,1,17C1,8.2,8.2,1,17,1c8.8,0,16,7.2,16,16C33,25.8,25.8,33,17,33z M16,21.9
	c0-0.9,0-1.8,0.2-2.6c0.1-0.8,0.6-1.5,1.2-2.2c0.4-0.4,0.8-0.8,1.2-1.2c0.4-0.4,0.8-0.8,1.1-1.1c0.3-0.4,0.6-0.8,0.9-1.2
	c0.2-0.4,0.3-0.9,0.3-1.3c0-0.5-0.1-0.9-0.3-1.3c-0.2-0.4-0.4-0.8-0.8-1.1c-0.3-0.3-0.8-0.5-1.3-0.7c-0.5-0.2-1.1-0.3-1.7-0.3
	c-0.6,0-1.2,0.1-1.7,0.3c-0.5,0.2-0.9,0.5-1.3,0.9c-0.3,0.4-0.6,0.9-0.8,1.4C13,12,13,12.6,13,13.2h-1.5c-0.1-0.9,0-1.6,0.3-2.3
	s0.6-1.3,1.1-1.8c0.5-0.5,1.1-0.9,1.8-1.2c0.7-0.3,1.5-0.4,2.3-0.4c0.9,0,1.7,0.1,2.4,0.3c0.7,0.2,1.3,0.6,1.8,1
	c0.5,0.4,0.9,0.9,1.1,1.5c0.3,0.6,0.4,1.3,0.4,2c0,0.8-0.2,1.4-0.5,1.9c-0.3,0.5-0.7,1-1.2,1.5c-0.5,0.5-1,0.9-1.5,1.4
	c-0.5,0.5-1,1-1.3,1.6c-0.3,0.4-0.5,0.9-0.5,1.5c0,0.5-0.1,1.1-0.1,1.6H16z M15.9,26.5v-2.3h1.9v2.3H15.9z"/>
</svg>
