<?xml version="1.0" encoding="utf-8"?>
<!-- Generator: Adobe Illustrator 18.1.0, SVG Export Plug-In . SVG Version: 6.00 Build 0)  -->
<svg version="1.1" id="Layer_1" xmlns="http://www.w3.org/2000/svg" xmlns:xlink="http://www.w3.org/1999/xlink" x="0px" y="0px"
	 viewBox="0 0 34 40" enable-background="new 0 0 34 40" xml:space="preserve">
<path fill-rule="evenodd" clip-rule="evenodd" fill="#424241" d="M34,35c0,0-2.3-4.8-3-8c-1.1-5-0.8-10.8-0.8-10.8
	c0-6.8-5.5-12.4-12.3-12.4h0.4c0.3,0,0.5-0.2,0.5-0.5V0.5c0-0.3-0.2-0.5-0.5-0.5h-2.8c-0.3,0-0.5,0.2-0.5,0.5v2.8
	c0,0.3,0.2,0.5,0.5,0.5h0.4C9.3,3.8,3.8,9.4,3.8,16.2c0,0,0.3,5.9-0.8,10.8c-0.7,3.3-3,8-3,8h13.1C13,35.2,13,35.3,13,35.5v3
	c0,0.8,0.7,1.5,1.5,1.5h5c0.8,0,1.5-0.7,1.5-1.5v-3c0-0.2,0-0.3-0.1-0.5H34z M16,2.5v-1C16,1.2,16.2,1,16.5,1h1
	C17.8,1,18,1.2,18,1.5v1C18,2.8,17.8,3,17.5,3h-1C16.2,3,16,2.8,16,2.5z M20,37.5c0,0.8-0.7,1.5-1.5,1.5h-3c-0.8,0-1.5-0.7-1.5-1.5
	v-1c0-0.8,0.7-1.5,1.5-1.5h3c0.8,0,1.5,0.7,1.5,1.5V37.5z M1.6,34c0,0,1.8-4.1,2.4-7.1c1-4.6,0.7-10.6,0.7-10.6C4.7,10,9.7,5,16.1,5
	h1.8c6.4,0,11.4,5.2,11.4,11.5c0,0-0.3,5.9,0.8,10.5c0.7,3,2.5,7,2.5,7H1.6z"/>
</svg>
