<?xml version="1.0" encoding="utf-8"?>
<!-- Generator: Adobe Illustrator 18.1.0, SVG Export Plug-In . SVG Version: 6.00 Build 0)  -->
<svg version="1.1" id="Layer_1" xmlns="http://www.w3.org/2000/svg" xmlns:xlink="http://www.w3.org/1999/xlink" x="0px" y="0px"
	 viewBox="0 0 18 20" enable-background="new 0 0 18 20" xml:space="preserve">
<g>
	<path fill="#424241" d="M8.5,18H9c0,0,0,0,0,0s0,0,0,0h0.5c0.5,0,0.9,0,1.3,0H18c0,0-1.3-1.9-1.7-3.6C15.7,11.8,16,8.5,16,8.5
		C16,4.9,13.1,2,9.5,2C9.8,2,10,1.8,10,1.5v-1C10,0.2,9.8,0,9.5,0h-1C8.2,0,8,0.2,8,0.5v1C8,1.8,8.2,2,8.5,2C4.9,2,2,4.9,2,8.5
		c0,0,0.3,3.3-0.3,5.9C1.3,16.1,0,18,0,18h7.2C7.6,18,8,18,8.5,18z M1.5,17c0,0,0.8-1.7,1.1-3.2c0.5-2.3,0.1-5.2,0.1-5.2
		C2.8,5.5,5.4,3,8.6,3h0.9c3.2,0,5.8,2.5,5.8,5.7c0,0-0.3,2.9,0.2,5.2c0.3,1.5,1.1,3.1,1.1,3.1H1.5z"/>
	<path fill="#424241" d="M9.5,18C9.5,18,9.5,18,9.5,18L9,18h0H8.5c0,0,0,0,0,0H7.2C7.1,18.1,7,18.2,7,18.5C7,19.3,7.7,20,8.5,20h1
		c0.8,0,1.5-0.7,1.5-1.5c0-0.3-0.1-0.4-0.2-0.5H9.5z"/>
</g>
</svg>
