<?xml version="1.0" encoding="utf-8"?>
<!-- Generator: Adobe Illustrator 18.1.0, SVG Export Plug-In . SVG Version: 6.00 Build 0)  -->
<svg version="1.1" id="Layer_1" xmlns="http://www.w3.org/2000/svg" xmlns:xlink="http://www.w3.org/1999/xlink" x="0px" y="0px"
	 viewBox="0 0 26 26" enable-background="new 0 0 26 26" xml:space="preserve">
<path fill-rule="evenodd" clip-rule="evenodd" fill="#424241" d="M22,1V0.7C22,0.3,21.7,0,21.2,0h-1.5C19.3,0,19,0.3,19,0.7V1H7V0.7
	C7,0.3,6.7,0,6.3,0H4.8C4.3,0,4,0.3,4,0.7V1H0v25h26V1H22z M25,25H1V7h24V25z M25,6H1V2h3v1.3C4,3.7,4.3,4,4.8,4h1.5
	C6.7,4,7,3.7,7,3.3V2h12v1.3C19,3.7,19.3,4,19.7,4h1.5C21.7,4,22,3.7,22,3.3V2h3V6z M4,22h18v0h0V10h0V9H4v1h0L4,22L4,22L4,22z
	 M16,10h5v5h-5V10z M16,16h5v5h-5V16z M11,10h4v5h-4V10z M11,16h4v5h-4V16z M5,10h5v5H5V10z M5,16h5v5H5V16z"/>
</svg>
