<?xml version="1.0" encoding="utf-8"?>
<!-- Generator: Adobe Illustrator 18.1.0, SVG Export Plug-In . SVG Version: 6.00 Build 0)  -->
<svg version="1.1" id="Layer_1" xmlns="http://www.w3.org/2000/svg" xmlns:xlink="http://www.w3.org/1999/xlink" x="0px" y="0px"
	 viewBox="0 0 26 26" enable-background="new 0 0 26 26" xml:space="preserve">
<path fill-rule="evenodd" clip-rule="evenodd" fill="#424241" d="M21,16h-5v5h5V16z M10,16H5v5h5V16z M15,16h-4v5h4V16z M16,15h5v-5
	h-5V15z M0,26h26V7H0V26z M4,9h18v13H4V9z M22,1V0.7C22,0.3,21.7,0,21.2,0h-1.5C19.3,0,19,0.3,19,0.7V1H7V0.7C7,0.3,6.7,0,6.3,0H4.8
	C4.3,0,4,0.3,4,0.7V1H0v5h26V1H22z M11,15h4v-5h-4V15z M5,15h5v-5H5V15z"/>
</svg>
