<?xml version="1.0" encoding="utf-8"?><!DOCTYPE svg PUBLIC "-//W3C//DTD SVG 1.1//EN" "http://www.w3.org/Graphics/SVG/1.1/DTD/svg11.dtd"><svg version="1.1" baseProfile="full" xmlns="http://www.w3.org/2000/svg" xmlns:xlink="http://www.w3.org/1999/xlink" xmlns:ev="http://www.w3.org/2001/xml-events"   height="38px"   width="38px" ><path fill="rgb( 0, 0, 0 )" d="M19,38 C8.50700000000001,38 0,29.493 0,19 C0,8.507 8.50700000000001,0 19,0 C29.493,0 38,8.507 38,19 C38,29.493 29.493,38 19,38 ZM19,1 C9.059,1 1,9.059 1,19 C1,28.941 9.059,37 19,37 C28.941,37 37,28.941 37,19 C37,9.059 28.941,1 19,1 ZM19,30 C12.925,30 8,25.075 8,19 C8,12.925 12.925,8 19,8 C25.075,8 30,12.925 30,19 C30,25.075 25.075,30 19,30 ZM17.688,9.096 C18.107,9.049 18.526,9 19,9 C19.474,9 19.893,9.049 20.312,9.096 C19.882,9.039 19.446,9 19,9 C18.554,9 18.118,9.039 17.688,9.096 ZM25.478,11.39 C25.821,11.742 26,12 26,12 C26,12 19,20 19,20 C19,20 12,12 12,12 C12,12 12.179,11.742 12.522,11.39 C10.369,13.224 9,15.95 9,19 C9,24.523 13.477,29 19,29 C24.523,29 29,24.523 29,19 C29,15.95 27.631,13.224 25.478,11.39 Z "/></svg>