<?xml version="1.0" encoding="utf-8"?>
<!-- Generator: Adobe Illustrator 18.1.0, SVG Export Plug-In . SVG Version: 6.00 Build 0)  -->
<svg version="1.1" id="Layer_1" xmlns="http://www.w3.org/2000/svg" xmlns:xlink="http://www.w3.org/1999/xlink" x="0px" y="0px"
	 viewBox="0 0 38 38" enable-background="new 0 0 38 38" xml:space="preserve">
<path fill-rule="evenodd" clip-rule="evenodd" fill="#424241" d="M19,0C8.5,0,0,8.5,0,19c0,10.5,8.5,19,19,19s19-8.5,19-19
	C38,8.5,29.5,0,19,0z M19,30c-6.1,0-11-4.9-11-11c0-6.1,4.9-11,11-11s11,4.9,11,11C30,25.1,25.1,30,19,30z M25.9,11.8L19,18
	l-6.8-6.3c0,0-0.1,0.1-0.2,0.2c-1.8,1.8-3,4.3-3,7.1c0,5.5,4.5,10,10,10c5.5,0,10-4.5,10-10c0-2.7-1.1-5.1-2.8-6.9
	C26.1,12,25.9,11.8,25.9,11.8z"/>
</svg>
