<?xml version="1.0" encoding="utf-8"?>
<!-- Generator: Adobe Illustrator 18.1.0, SVG Export Plug-In . SVG Version: 6.00 Build 0)  -->
<svg version="1.1" id="Layer_1" xmlns="http://www.w3.org/2000/svg" xmlns:xlink="http://www.w3.org/1999/xlink" x="0px" y="0px"
	 viewBox="0 0 50.3 50" enable-background="new 0 0 50.3 50" xml:space="preserve">
<path fill-rule="evenodd" clip-rule="evenodd" fill="#424241" d="M35,14.6l-9.6,9.6l-9.6-9.6L15,15.4l9.6,9.6L15,34.6l0.7,0.7
	l9.6-9.6l9.6,9.6l0.7-0.7L26,25l9.6-9.6L35,14.6z M25.3,0c-13.8,0-25,11.2-25,25s11.2,25,25,25s25-11.2,25-25S39.1,0,25.3,0z
	 M25.3,49c-13.3,0-24-10.7-24-24c0-13.3,10.7-24,24-24s24,10.7,24,24C49.3,38.3,38.6,49,25.3,49z"/>
</svg>
