<?xml version="1.0" encoding="utf-8"?>
<!-- Generator: Adobe Illustrator 18.1.0, SVG Export Plug-In . SVG Version: 6.00 Build 0)  -->
<svg version="1.1" id="Layer_1" xmlns="http://www.w3.org/2000/svg" xmlns:xlink="http://www.w3.org/1999/xlink" x="0px" y="0px"
	 viewBox="0 0 23.2 28.7" enable-background="new 0 0 23.2 28.7" xml:space="preserve">
<g>
	<path fill="#424241" d="M8.5,20.4c0-2.4-1.9-4.3-4.3-4.3c-2.4,0-4.3,1.9-4.3,4.3c0,2.4,1.9,4.3,4.3,4.3C6.6,24.7,8.5,22.8,8.5,20.4
		z M4.3,23.5c-1.7,0-3.1-1.4-3.1-3.1c0-1.7,1.4-3.1,3.1-3.1c1.7,0,3.1,1.4,3.1,3.1C7.4,22.1,6,23.5,4.3,23.5z"/>
	<path fill="#424241" d="M8.9,4.1c0.2,0.3,0.2,0.6,0.2,0.6s1,0.2,1.3-0.7S9.4,2.3,9.2,2.6C8.5,3.3,8.5,3.8,8.5,3.8S8.7,3.8,8.9,4.1z
		"/>
	<path fill="#424241" d="M12.6,2.1c0.9,0.2,1.2-0.8,1.2-0.8s-0.3-0.2-0.5-0.4c-0.2-0.3-0.1-0.5-0.1-0.5s-0.4-0.2-1.3,0
		C11.5,0.6,11.7,2,12.6,2.1z"/>
	<circle fill="#424241" cx="4.3" cy="20.4" r="1.4"/>
	<path fill="#424241" d="M20.2,14.4l0.1-0.1c1.4-1.4,2.1-3.1,2.1-4.5c0-4.7-3.5-8.5-5.8-9.6c-0.6-0.3-2.3-0.3-3,0.2
		c-0.3,0.2,0,0.7,1,0.5c1-0.2,1.7,0,2,0.2c2.7,1.6,8.4,8.1,1.8,12.3c-0.1,0-0.1,0.1-0.2,0.1C12.1,17.7,8.5,10.2,8,7.3
		C7.8,6,8.1,6.2,8.6,5.2c0.3-0.6,0-1.1-0.6-0.6c-1.1,1-1.3,2.4-0.2,5c0.7,1.8,2.3,4.4,4.1,5.7c2.2,1.7,5.3,1.2,7.5-0.3
		c0.6,0.7,3.8,4.4,2.6,8.2c-0.7,2.2-2.5,3.8-4.9,4.3c-3.2,0.7-6.6-0.6-9.4-3.6l-0.7,0.7c2.4,2.7,5.4,4.1,8.3,4.1
		c0.7,0,1.3-0.1,2-0.2c2.8-0.6,4.9-2.5,5.7-5C24.2,19.3,21,15.3,20.2,14.4z"/>
</g>
</svg>
