<?xml version="1.0" encoding="utf-8"?>
<!-- Generator: Adobe Illustrator 18.1.0, SVG Export Plug-In . SVG Version: 6.00 Build 0)  -->
<svg version="1.1" id="Layer_1" xmlns="http://www.w3.org/2000/svg" xmlns:xlink="http://www.w3.org/1999/xlink" x="0px" y="0px"
	 viewBox="0 0 21 18" enable-background="new 0 0 21 18" xml:space="preserve">
<path fill-rule="evenodd" clip-rule="evenodd" fill="#424241" d="M10.5,0L0,18h21L10.5,0z M10.5,1.8c0,0,8.8,15.2,8.8,15.2L1.7,17
	L10.5,1.8z M10.7,12.4L11,6h-1l0.2,6.4H10.7z M10.5,14c-0.1,0-0.3,0-0.4,0.1C10,14.2,10,14.4,10,14.5c0,0.1,0,0.3,0.1,0.4
	c0.1,0.1,0.2,0.1,0.4,0.1c0.1,0,0.3,0,0.4-0.1c0.1-0.1,0.1-0.2,0.1-0.4c0-0.1,0-0.3-0.1-0.4C10.8,14,10.6,14,10.5,14z"/>
</svg>
