<?xml version="1.0" encoding="utf-8"?>
<!-- Generator: Adobe Illustrator 18.1.0, SVG Export Plug-In . SVG Version: 6.00 Build 0)  -->
<svg version="1.1" id="Layer_1" xmlns="http://www.w3.org/2000/svg" xmlns:xlink="http://www.w3.org/1999/xlink" x="0px" y="0px"
	 viewBox="0 0 18 11" enable-background="new 0 0 18 11" xml:space="preserve">
<path fill-rule="evenodd" clip-rule="evenodd" fill="#424241" d="M15.7,0H2.3C1,0,0,1,0,2.2v6.6C0,10,1,11,2.3,11h13.5
	C17,11,18,10,18,8.8V2.2C18,1,17,0,15.7,0z M3,1h12c0.4,0,0.7,0.1,1,0.3L9,6L2,1.3C2.3,1.1,2.6,1,3,1z M17,8.2
	c0,0.6-0.3,1.1-0.8,1.4l-5.3-3l-1,0.6l4.9,2.8H3.2l4.9-2.8L7.2,6.5L1.8,9.6C1.3,9.3,1,8.8,1,8.2V2.8C1,2.5,1.1,2.2,1.2,2l7.6,5.1
	L9,7.2l0.1-0.1L16.8,2C16.9,2.2,17,2.5,17,2.8V8.2z"/>
</svg>
