<?xml version="1.0" encoding="utf-8"?>
<!-- Generator: Adobe Illustrator 18.1.0, SVG Export Plug-In . SVG Version: 6.00 Build 0)  -->
<svg version="1.1" id="Layer_1" xmlns="http://www.w3.org/2000/svg" xmlns:xlink="http://www.w3.org/1999/xlink" x="0px" y="0px"
	 viewBox="0 0 26 26" enable-background="new 0 0 26 26" xml:space="preserve">
<path fill-rule="evenodd" clip-rule="evenodd" fill="#424241" d="M5,19h16V7H5V19z M20,17.3l-4.5-4.9l-0.7,0.6l4.6,5.1H6.6l4.6-5.1
	l1.7,1.4l1.7-1.4v0l0.7-0.6l0,0L20,8.6V17.3z M19.2,8L13,13.1L6.8,8H19.2z M6,8.6l4.5,3.8L6,17.3V8.6z M13,0C5.8,0,0,5.8,0,13
	c0,7.2,5.8,13,13,13c7.2,0,13-5.8,13-13C26,5.8,20.2,0,13,0z M13,25C6.4,25,1,19.6,1,13C1,6.4,6.4,1,13,1c6.6,0,12,5.4,12,12
	C25,19.6,19.6,25,13,25z"/>
</svg>
