<?xml version="1.0" encoding="utf-8"?>
<!-- Generator: Adobe Illustrator 18.1.0, SVG Export Plug-In . SVG Version: 6.00 Build 0)  -->
<svg version="1.1" id="Layer_1" xmlns="http://www.w3.org/2000/svg" xmlns:xlink="http://www.w3.org/1999/xlink" x="0px" y="0px"
	 viewBox="0 0 26 26" enable-background="new 0 0 26 26" xml:space="preserve">
<path fill-rule="evenodd" clip-rule="evenodd" fill="#424241" d="M20,17.3V8.6l-4.5,3.8L20,17.3z M19.2,8H6.8l6.2,5.1L19.2,8z
	 M13,14.4l-1.7-1.4L6.6,18h12.7l-4.6-5.1L13,14.4z M13,0C5.8,0,0,5.8,0,13c0,7.2,5.8,13,13,13c7.2,0,13-5.8,13-13
	C26,5.8,20.2,0,13,0z M21,19H5V7h16V19z M6,8.6v8.7l4.5-4.9L6,8.6z"/>
</svg>
