<?xml version="1.0" encoding="utf-8"?><!DOCTYPE svg PUBLIC "-//W3C//DTD SVG 1.1//EN" "http://www.w3.org/Graphics/SVG/1.1/DTD/svg11.dtd"><svg version="1.1" baseProfile="full" xmlns="http://www.w3.org/2000/svg" xmlns:xlink="http://www.w3.org/1999/xlink" xmlns:ev="http://www.w3.org/2001/xml-events"   height="38px"   width="38px" ><path fill="rgb( 0, 0, 0 )" d="M19,38 C8.50700000000001,38 0,29.493 0,19 C0,8.50700000000001 8.50700000000001,0 19,0 C29.493,0 38,8.50700000000001 38,19 C38,29.493 29.493,38 19,38 ZM19,1 C9.059,1 1,9.059 1,19 C1,28.941 9.059,37 19,37 C28.941,37 37,28.941 37,19 C37,9.059 28.941,1 19,1 ZM12,20 C12,20 12,18 12,18 C12,18 18,18 18,18 C18,18 26,18 26,18 C26,18 26,20 26,20 C26,20 18,20 18,20 C18,20 12,20 12,20 Z "/></svg>