<?xml version="1.0" encoding="utf-8"?>
<!-- Generator: Adobe Illustrator 18.1.0, SVG Export Plug-In . SVG Version: 6.00 Build 0)  -->
<svg version="1.1" id="Layer_1" xmlns="http://www.w3.org/2000/svg" xmlns:xlink="http://www.w3.org/1999/xlink" x="0px" y="0px"
	 viewBox="0 0 19 19" enable-background="new 0 0 19 19" xml:space="preserve">
<path fill-rule="evenodd" clip-rule="evenodd" fill="#424241" d="M9.5,0C4.3,0,0,4.3,0,9.5C0,14.7,4.3,19,9.5,19
	c5.2,0,9.5-4.3,9.5-9.5C19,4.3,14.7,0,9.5,0z M9.5,18C4.8,18,1,14.2,1,9.5C1,4.8,4.8,1,9.5,1C14.2,1,18,4.8,18,9.5
	C18,14.2,14.2,18,9.5,18z M8,12L4.8,8.5L4,9l4,4.5L15,6l-0.7-0.6L8,12z"/>
</svg>
