<?xml version="1.0" encoding="utf-8"?>
<!-- Generator: Adobe Illustrator 18.1.0, SVG Export Plug-In . SVG Version: 6.00 Build 0)  -->
<svg version="1.1" id="Layer_1" xmlns="http://www.w3.org/2000/svg" xmlns:xlink="http://www.w3.org/1999/xlink" x="0px" y="0px"
	 viewBox="0 0 34 34" enable-background="new 0 0 34 34" xml:space="preserve">
<path fill-rule="evenodd" clip-rule="evenodd" fill="#424241" d="M17,0C7.6,0,0,7.6,0,17c0,9.4,7.6,17,17,17c9.4,0,17-7.6,17-17
	C34,7.6,26.4,0,17,0z M17,33C8.2,33,1,25.8,1,17S8.2,1,17,1c8.8,0,16,7.2,16,16S25.8,33,17,33z M14,22.2l-5.8-5.5l-0.8,0.8L14,24
	l12.8-13.3L26,9.9L14,22.2z"/>
</svg>
