<?xml version="1.0" encoding="utf-8"?>
<!-- Generator: Adobe Illustrator 18.1.0, SVG Export Plug-In . SVG Version: 6.00 Build 0)  -->
<svg version="1.1" id="Layer_1" xmlns="http://www.w3.org/2000/svg" xmlns:xlink="http://www.w3.org/1999/xlink" x="0px" y="0px"
	 viewBox="0 0 22.2 26" enable-background="new 0 0 22.2 26" xml:space="preserve">
<path fill-rule="evenodd" clip-rule="evenodd" fill="#424241" d="M20.4,8.1c-0.9,0-1.6,0.7-1.6,1.6V16c0,0.9,0.7,1.6,1.6,1.6
	c0.9,0,1.6-0.7,1.6-1.6V9.7C22,8.9,21.3,8.1,20.4,8.1z M1.6,8.1C0.7,8.1,0,8.9,0,9.7V16c0,0.9,0.7,1.6,1.6,1.6s1.6-0.7,1.6-1.6V9.7
	C3.1,8.9,2.4,8.1,1.6,8.1z M4.1,19.6c0,0.7,0.5,1.2,1.2,1.2h1.4v3.5c0,0.9,0.7,1.6,1.6,1.6c0.9,0,1.6-0.7,1.6-1.6v-3.5h2.4v3.5
	c0,0.9,0.7,1.6,1.6,1.6c0.9,0,1.6-0.7,1.6-1.6v-3.5h1.4c0.7,0,1.2-0.6,1.2-1.2V8.2H4.1V19.6z M14.3,2.2l1.3-1.9
	c0.1-0.1,0.1-0.3,0-0.3c-0.1-0.1-0.2,0-0.3,0.1l-1.3,2C13,1.7,12,1.5,11,1.5c-1,0-2,0.2-2.9,0.5l-1.3-2C6.7,0,6.6,0,6.5,0
	c-0.1,0.1-0.1,0.2,0,0.3l1.3,1.9C5.7,3.2,4.2,5,4,7.2H18C17.8,5,16.3,3.2,14.3,2.2z M8.1,5.2c-0.4,0-0.8-0.3-0.8-0.8
	c0-0.4,0.3-0.8,0.8-0.8c0.4,0,0.8,0.3,0.8,0.8C8.8,4.9,8.5,5.2,8.1,5.2z M14,5.2c-0.4,0-0.8-0.3-0.8-0.8c0-0.4,0.3-0.8,0.8-0.8
	s0.8,0.3,0.8,0.8C14.8,4.9,14.5,5.2,14,5.2z"/>
</svg>
