<?xml version="1.0" encoding="utf-8"?>
<!-- Generator: Adobe Illustrator 18.1.0, SVG Export Plug-In . SVG Version: 6.00 Build 0)  -->
<svg version="1.1" id="Layer_1" xmlns="http://www.w3.org/2000/svg" xmlns:xlink="http://www.w3.org/1999/xlink" x="0px" y="0px"
	 viewBox="0 0 22.3 25" enable-background="new 0 0 22.3 25" xml:space="preserve">
<path fill-rule="evenodd" clip-rule="evenodd" fill="#424241" d="M14.8,4.1C15.6,3,16.3,1.5,16,0c-1.4,0.1-3,0.9-4,2.1
	c-0.9,1-1.6,2.5-1.3,4C12.3,6.1,13.9,5.2,14.8,4.1z M21.5,8.4c-1.3-1.6-3.2-2.5-5-2.5c-2.3,0-3.3,1.1-5,1.1c-1.7,0-2.9-1.1-5-1.1
	C4.6,5.9,2.5,7,1.2,9c-1.9,2.8-1.6,8.1,1.5,12.6C3.8,23.2,5.2,25,7.1,25c1.7,0,2.2-1,4.5-1.1s2.7,1.1,4.4,1.1c1.9,0,3.5-2,4.5-3.6
	c0.8-1.1,1.1-1.7,1.7-3C17.9,16.7,17.1,10.7,21.5,8.4z"/>
</svg>
