<?xml version="1.0" encoding="utf-8"?>
<!-- Generator: Adobe Illustrator 18.1.0, SVG Export Plug-In . SVG Version: 6.00 Build 0)  -->
<svg version="1.1" id="Layer_1" xmlns="http://www.w3.org/2000/svg" xmlns:xlink="http://www.w3.org/1999/xlink" x="0px" y="0px"
	 viewBox="0 0 26 26" enable-background="new 0 0 26 26" xml:space="preserve">
<path fill-rule="evenodd" clip-rule="evenodd" fill="#424241" d="M13,0C5.8,0,0,5.8,0,13c0,7.2,5.8,13,13,13s13-5.8,13-13
	C26,5.8,20.2,0,13,0z M13,25C6.4,25,1,19.6,1,13C1,6.4,6.4,1,13,1c6.6,0,12,5.4,12,12C25,19.6,19.6,25,13,25z M20,10V7H6v3H4v8h2v2
	h14v-2h2v-8H20z M7,8h12v2H7V8z M18,12v2h-1v-2H18z M19,19H7v-3h12V19z M20,14h-1v-2h1V14z"/>
</svg>
