<?xml version="1.0" encoding="utf-8"?>
<!-- Generator: Adobe Illustrator 18.1.0, SVG Export Plug-In . SVG Version: 6.00 Build 0)  -->
<svg version="1.1" id="Layer_1" xmlns="http://www.w3.org/2000/svg" xmlns:xlink="http://www.w3.org/1999/xlink" x="0px" y="0px"
	 viewBox="0 0 14.5 13" enable-background="new 0 0 14.5 13" xml:space="preserve">
<path fill-rule="evenodd" clip-rule="evenodd" fill="#424241" d="M5.5,0C2.5,0,0,2.5,0,5.5c0,3,2.5,5.5,5.5,5.5c3,0,5.5-2.5,5.5-5.5
	C11,2.5,8.5,0,5.5,0z M5.5,10C3,10,1,8,1,5.5C1,3,3,1,5.5,1S10,3,10,5.5C10,8,8,10,5.5,10z M10.2,9L9.5,9.7l4.2,3.2l0.7-0.7L10.2,9z
	"/>
</svg>
