<?xml version="1.0" encoding="utf-8"?>
<!-- Generator: Adobe Illustrator 18.1.0, SVG Export Plug-In . SVG Version: 6.00 Build 0)  -->
<svg version="1.1" id="Layer_1" xmlns="http://www.w3.org/2000/svg" xmlns:xlink="http://www.w3.org/1999/xlink" x="0px" y="0px"
	 viewBox="0 0 15.4 26.8" enable-background="new 0 0 15.4 26.8" xml:space="preserve">
<path fill-rule="evenodd" clip-rule="evenodd" fill="#424241" d="M7.7,13.8c3.8,0,6.9-3.1,6.9-6.9c0-3.8-3.1-6.9-6.9-6.9
	C3.9,0,0.8,3.1,0.8,6.9C0.8,10.7,3.9,13.8,7.7,13.8z M7.7,4.1c1.6,0,2.8,1.3,2.8,2.9c0,1.6-1.3,2.9-2.8,2.9c-1.6,0-2.8-1.3-2.8-2.9
	C4.9,5.3,6.1,4.1,7.7,4.1z M10.5,19.5c1.4-0.3,2.8-0.9,4-1.7c0.9-0.6,1.2-1.8,0.6-2.8c-0.6-0.9-1.8-1.2-2.8-0.6
	c-2.8,1.8-6.4,1.8-9.3,0c-0.9-0.6-2.2-0.3-2.8,0.6C-0.3,16,0,17.2,0.9,17.8c1.2,0.8,2.6,1.3,4,1.7l-3.8,3.9c-0.8,0.8-0.8,2.1,0,2.9
	c0.4,0.4,0.9,0.6,1.4,0.6c0.5,0,1-0.2,1.4-0.6l3.8-3.8l3.8,3.8c0.8,0.8,2.1,0.8,2.8,0c0.8-0.8,0.8-2.1,0-2.9L10.5,19.5z"/>
</svg>
