<?xml version="1.0" encoding="utf-8"?>
<!-- Generator: Adobe Illustrator 18.1.0, SVG Export Plug-In . SVG Version: 6.00 Build 0)  -->
<svg version="1.1" id="Layer_1" xmlns="http://www.w3.org/2000/svg" xmlns:xlink="http://www.w3.org/1999/xlink" x="0px" y="0px"
	 viewBox="0 0 33.1 17.8" enable-background="new 0 0 33.1 17.8" xml:space="preserve">
<path fill-rule="evenodd" clip-rule="evenodd" fill="#424241" d="M32.8,15.9c-0.1-0.1-0.6-1.3-3.3-3.6c-2.8-2.4-2.4-2,0.9-6.2
	c2-2.6,2.8-4.1,2.6-4.8c-0.2-0.6-1.7-0.5-1.7-0.5l-5,0c0,0-0.4,0-0.6,0.1c-0.3,0.2-0.4,0.5-0.4,0.5s-0.8,2-1.8,3.7
	c-2.2,3.5-3.1,3.7-3.5,3.5c-0.8-0.5-0.6-2.1-0.6-3.2c0-3.4,0.6-4.9-1.1-5.2C17.7,0.1,17.3,0,15.9,0c-1.8,0-3.3,0-4.1,0.4
	c-0.6,0.3-1,0.8-0.7,0.9c0.3,0,1.1,0.2,1.5,0.7C13,2.6,13,4.1,13,4.1s0.3,4-0.7,4.6C11.6,9,10.7,8.3,8.8,5.1C7.7,3.4,7,1.6,7,1.6
	S6.8,1.2,6.6,1C6.2,0.8,5.8,0.8,5.8,0.8l-4.7,0c0,0-0.7,0-1,0.3c-0.2,0.3,0,0.8,0,0.8S3.8,10.1,8,14.2c3.8,3.8,8.2,3.6,8.2,3.6h2
	c0,0,0.6-0.1,0.9-0.4c0.3-0.3,0.3-0.8,0.3-0.8s0-2.5,1.2-2.9c1.2-0.4,2.8,2.4,4.4,3.5c1.2,0.8,2.2,0.6,2.2,0.6l4.4,0
	C31.6,17.8,33.9,17.6,32.8,15.9z"/>
</svg>
