<?xml version="1.0" encoding="utf-8"?>
<!-- Generator: Adobe Illustrator 18.1.0, SVG Export Plug-In . SVG Version: 6.00 Build 0)  -->
<svg version="1.1" id="Layer_1" xmlns="http://www.w3.org/2000/svg" xmlns:xlink="http://www.w3.org/1999/xlink" x="0px" y="0px"
	 viewBox="0 0 19.1 23" enable-background="new 0 0 19.1 23" xml:space="preserve">
<path fill-rule="evenodd" clip-rule="evenodd" fill="#424241" d="M17.7,15.4C15.7,13.7,12,13,12,13v0c0,0-0.4,0-2.6,0
	c-2,0-2.4,0-2.4,0s-3.8,1-5.6,2.4C-0.4,16.8,0,21,0,21c0,1.1,0.9,2,2,2h15c1.1,0,2-0.9,2-2C19,21,19.7,17.1,17.7,15.4z M7,11
	c0,0,1.6,1.2,2.5,1.2c0.9,0,2.5-1.2,2.5-1.2s2.3-1.9,2.3-6.2c0-4.3-3.2-4.8-4.8-4.8C8,0,4.8,0.9,4.8,4.8C4.8,8.7,7,11,7,11 M7,13"/>
</svg>
