<?xml version="1.0" standalone="no"?><!DOCTYPE svg PUBLIC "-//W3C//DTD SVG 1.1//EN" "http://www.w3.org/Graphics/SVG/1.1/DTD/svg11.dtd" ><svg xmlns="http://www.w3.org/2000/svg"><metadata>Generated by PNG Express</metadata><defs><font id="iconFont" horiz-adv-x="512"><font-face units-per-em="512" ascent="480" descent="-32" /><missing-glyph horiz-adv-x="512" /><glyph unicode="&#x20;" d="" horiz-adv-x="256" /><glyph unicode="&#xe600;" d="M256,480 C115,480 0,365 0,224 C0,83 115,-32 256,-32 C397,-32 512,83 512,224 C512,365 397,480 256,480 zM256,-6 C129,-6 26,97 26,224 C26,351 129,454 256,454 C383,454 486,351 486,224 C486,97 383,-6 256,-6 zM192,314 L282,224 L192,134 L230,96 L358,224 L230,352 L192,314 z" /><glyph unicode="&#xe601;" d="M256,480 C115,480 0,365 0,224 C0,83 115,-32 256,-32 C397,-32 512,83 512,224 C512,365 397,480 256,480 zM230,96 L192,134 L282,224 L192,314 L230,352 L358,224 L230,96 z" /><glyph unicode="&#xe602;" d="M457,435 L183,112 L54,245 L0,188 L183,-1 L512,377 L457,435 z" /><glyph unicode="&#xe603;" d="M512,423 L463,473 L260,266 L50,480 L0,429 L210,215 L20,20 L69,-30 L259,164 L451,-32 L501,19 L309,216 L512,423 z" /><glyph unicode="&#xe604;" d="M256,370 L0,141 L57,84 L256,260 L453,77 L512,141 L256,370 z" /><glyph unicode="&#xe605;" d="M453,370 L256,187 L57,363 L0,306 L256,77 L512,306 L453,370 z" /><glyph unicode="&#xe606;" d="M157,480 L98,421 L295,224 L98,27 L157,-32 L413,224 L157,480 z" /><glyph unicode="&#xe607;" d="M433,460 C433,460 433,467 433,467 C433,474 426,480 418,480 C418,480 389,480 389,480 C381,480 374,474 374,467 C374,467 374,460 374,460 L138,460 C138,460 138,467 138,467 C138,474 131,480 123,480 C123,480 94,480 94,480 C86,480 79,474 79,467 C79,467 79,460 79,460 L0,460 L0,-32 L512,-32 L512,460 L433,460 zM492,-12 L20,-12 L20,342 L492,342 L492,-12 zM492,362 L20,362 L20,441 L79,441 C79,441 79,414 79,414 C79,407 86,401 94,401 C94,401 123,401 123,401 C131,401 138,407 138,414 C138,414 138,441 138,441 L374,441 C374,441 374,414 374,414 C374,407 381,401 389,401 C389,401 418,401 418,401 C426,401 433,407 433,414 C433,414 433,441 433,441 L492,441 L492,362 zM79,47 L433,47 L433,47 L433,47 L433,283 L433,283 L433,303 L79,303 L79,283 L79,283 L79,47 L79,47 L79,47 zM315,283 L413,283 L413,185 L315,185 L315,283 zM315,165 L413,165 L413,67 L315,67 L315,165 zM217,283 L295,283 L295,185 L217,185 L217,283 zM217,165 L295,165 L295,67 L217,67 L217,165 zM99,283 L197,283 L197,185 L99,185 L99,283 zM99,165 L197,165 L197,67 L99,67 L99,165 z" /><glyph unicode="&#xe608;" d="M433,460 C433,460 433,467 433,467 C433,474 426,480 418,480 C418,480 389,480 389,480 C381,480 374,474 374,467 C374,467 374,460 374,460 L138,460 C138,460 138,467 138,467 C138,474 131,480 123,480 C123,480 94,480 94,480 C86,480 79,474 79,467 C79,467 79,460 79,460 L0,460 L0,362 L512,362 L512,460 L433,460 zM0,-32 L512,-32 L512,342 L0,342 L0,-32 zM79,303 L433,303 L433,47 L79,47 L79,303 zM315,185 L414,185 L414,283 L315,283 L315,185 zM315,67 L414,67 L414,165 L315,165 L315,67 zM217,185 L295,185 L295,283 L217,283 L217,185 zM217,67 L295,67 L295,165 L217,165 L217,67 zM98,185 L197,185 L197,283 L98,283 L98,185 zM98,67 L197,67 L197,165 L98,165 L98,67 z" /><glyph unicode="&#xe609;" d="M256,480 C115,480 0,365 0,224 C0,83 115,-32 256,-32 C397,-32 512,83 512,224 C512,365 397,480 256,480 zM275,106 L236,106 L236,145 L276,145 L275,106 zM276,185 L236,185 L236,342 L276,342 L276,185 z" /><glyph unicode="&#xe60a;" d="M256,480 C115,480 0,365 0,224 C0,83 115,-32 256,-32 C397,-32 512,83 512,224 C512,365 397,480 256,480 zM256,-12 C125,-12 20,93 20,224 C20,355 125,460 256,460 C387,460 492,355 492,224 C492,93 387,-12 256,-12 zM236,185 L276,185 L276,342 L236,342 L236,185 zM236,106 L275,106 L276,145 L236,145 L236,106 z" /><glyph unicode="&#xe60b;" d="M256,480 C115,480 0,365 0,224 C0,83 115,-32 256,-32 C397,-32 512,83 512,224 C512,365 397,480 256,480 zM276,106 L236,106 L236,263 L276,263 L276,106 zM236,303 L237,342 L276,342 L276,303 L236,303 z" /><glyph unicode="&#xe60c;" d="M256,480 C115,480 0,365 0,224 C0,83 115,-32 256,-32 C397,-32 512,83 512,224 C512,365 397,480 256,480 zM414,106 L98,106 L98,342 L414,342 L414,106 zM118,311 L118,139 L208,237 L118,311 zM377,322 L135,322 L256,222 L377,322 zM394,139 L394,311 L304,237 L394,139 zM256,197 L222,225 L131,126 L381,126 L290,225 L256,197 z" /><glyph unicode="&#xe60d;" d="M256,480 C115,480 0,365 0,224 C0,83 115,-32 256,-32 C397,-32 512,83 512,224 C512,365 397,480 256,480 zM433,126 L394,126 L394,86 L118,86 L118,126 L79,126 L79,283 L118,283 L118,342 L394,342 L394,283 L433,283 L433,126 zM374,204 L394,204 L394,244 L374,244 L374,204 zM138,106 L374,106 L374,165 L138,165 L138,106 zM354,204 L354,244 L335,244 L335,204 L354,204 zM374,322 L138,322 L138,283 L374,283 L374,322 z" /><glyph unicode="&#xe60e;" d="M256,480 C115,480 0,365 0,224 C0,83 115,-32 256,-32 C397,-32 512,83 512,224 C512,365 397,480 256,480 zM256,-12 C125,-12 20,93 20,224 C20,355 125,460 256,460 C387,460 492,355 492,224 C492,93 387,-12 256,-12 zM237,342 L236,303 L276,303 L276,342 L237,342 zM236,106 L276,106 L276,263 L236,263 L236,106 z" /><glyph unicode="&#xe60f;" d="M256,480 C115,480 0,365 0,224 C0,83 115,-32 256,-32 C397,-32 512,83 512,224 C512,365 397,480 256,480 zM256,-12 C125,-12 20,93 20,224 C20,355 125,460 256,460 C387,460 492,355 492,224 C492,93 387,-12 256,-12 zM98,106 L414,106 L414,342 L98,342 L98,106 zM394,139 L304,237 L290,225 L381,126 L131,126 L222,225 L256,197 L290,225 L290,225 L304,237 L304,237 L394,311 L394,139 zM377,322 L256,222 L135,322 L377,322 zM118,311 L208,237 L118,139 L118,311 z" /><glyph unicode="&#xe610;" d="M256,480 C115,480 0,365 0,224 C0,83 115,-32 256,-32 C397,-32 512,83 512,224 C512,365 397,480 256,480 zM256,-12 C125,-12 20,93 20,224 C20,355 125,460 256,460 C387,460 492,355 492,224 C492,93 387,-12 256,-12 zM394,283 L394,342 L118,342 L118,283 L79,283 L79,126 L118,126 L118,86 L394,86 L394,126 L433,126 L433,283 L394,283 zM138,322 L374,322 L374,283 L138,283 L138,322 zM354,244 L354,204 L335,204 L335,244 L354,244 zM374,106 L138,106 L138,165 L374,165 L374,106 zM394,204 L374,204 L374,244 L394,244 L394,204 z" /><glyph unicode="&#xe611;" d="M256,480 C115,480 0,365 0,224 C0,83 115,-32 256,-32 C397,-32 512,83 512,224 C512,365 397,480 256,480 zM256,-22 C120,-22 10,88 10,224 C10,360 120,470 256,470 C392,470 502,360 502,224 C502,88 392,-22 256,-22 zM355,330 L256,231 L157,330 L150,323 L249,224 L150,125 L157,118 L256,217 L355,118 L362,125 L263,224 L362,323 L355,330 z" /><glyph unicode="&#xe612;" d="M256,480 C115,480 0,365 0,224 C0,83 115,-32 256,-32 C397,-32 512,83 512,224 C512,365 397,480 256,480 zM256,-22 C120,-22 10,88 10,224 C10,360 120,470 256,470 C392,470 502,360 502,224 C502,88 392,-22 256,-22 zM235,139 L147,228 L140,220 L236,124 L403,313 L396,320 L235,139 z" /><glyph unicode="&#xe613;" d="M256,448 L0,0 L512,0 L256,448 zM256,422 L486,13 L26,13 L256,422 zM247,298 L247,144 L267,144 L267,298 L247,298 zM247,80 L267,80 L267,106 L247,106 L247,80 z" /><glyph unicode="&#xe614;" d="M473,32 C473,32 444,93 435,134 C421,198 425,273 425,273 C425,360 354,431 268,431 C268,431 273,431 273,431 C277,431 280,434 280,438 C280,438 280,474 280,474 C280,477 277,480 273,480 C273,480 238,480 238,480 C234,480 231,477 231,474 C231,474 231,438 231,438 C231,434 234,431 238,431 C238,431 243,431 243,431 C157,431 86,360 86,273 C86,273 90,198 76,134 C67,93 38,32 38,32 C38,32 205,32 205,32 C205,30 204,28 204,26 C204,26 204,-13 204,-13 C204,-23 213,-32 224,-32 C224,-32 287,-32 287,-32 C298,-32 307,-23 307,-13 C307,-13 307,26 307,26 C307,28 306,30 306,32 C306,32 473,32 473,32 zM243,448 C243,448 243,461 243,461 C243,464 246,467 249,467 C249,467 262,467 262,467 C265,467 268,464 268,461 C268,461 268,448 268,448 C268,444 265,442 262,442 C262,442 249,442 249,442 C246,442 243,444 243,448 zM294,0 C294,-11 285,-19 275,-19 C275,-19 236,-19 236,-19 C226,-19 217,-11 217,0 C217,0 217,13 217,13 C217,23 226,32 236,32 C236,32 275,32 275,32 C285,32 294,23 294,13 C294,13 294,0 294,0 zM58,45 C58,45 81,97 89,135 C102,194 98,271 98,271 C98,352 162,416 244,416 C244,416 267,416 267,416 C349,416 412,350 412,269 C412,269 409,193 422,134 C430,96 453,45 453,45 L58,45 z" /><glyph unicode="&#xe615;" d="M256,480 C115,480 0,365 0,224 C0,83 115,-32 256,-32 C397,-32 512,83 512,224 C512,365 397,480 256,480 zM256,-17 C123,-17 15,91 15,224 C15,357 123,465 256,465 C389,465 497,357 497,224 C497,91 389,-17 256,-17 zM239,80 L267,80 L267,114 L239,114 L239,80 zM318,347 C311,354 302,359 292,362 C281,366 269,367 256,367 C243,367 232,365 221,361 C210,357 201,351 194,343 C186,336 180,327 176,316 C172,305 171,294 172,281 C172,281 195,281 195,281 C195,290 196,299 199,307 C201,314 205,321 210,327 C215,333 222,338 229,341 C237,345 245,346 255,346 C265,346 273,345 281,342 C288,340 295,336 300,332 C305,327 309,322 312,316 C314,310 316,303 316,296 C316,289 314,282 311,276 C307,270 303,264 298,258 C292,252 287,246 280,241 C274,235 268,229 263,223 C252,213 246,201 244,190 C242,178 241,165 241,151 C241,151 264,151 264,151 C264,159 264,167 265,175 C265,183 267,190 272,197 C278,206 284,214 292,221 C300,228 307,235 315,242 C322,249 328,257 333,265 C338,273 341,283 341,294 C341,305 339,315 335,324 C331,333 325,341 318,347 zM256,480 C115,480 0,365 0,224 C0,83 115,-32 256,-32 C397,-32 512,83 512,224 C512,365 397,480 256,480 zM256,-17 C123,-17 15,91 15,224 C15,357 123,465 256,465 C389,465 497,357 497,224 C497,91 389,-17 256,-17 zM318,347 C311,354 302,359 292,362 C281,366 269,367 256,367 C243,367 232,365 221,361 C210,357 201,351 194,343 C186,336 180,327 176,316 C172,305 171,294 172,281 C172,281 195,281 195,281 C195,290 196,299 199,307 C201,314 205,321 210,327 C215,333 222,338 229,341 C237,345 245,346 255,346 C265,346 273,345 281,342 C288,340 295,336 300,332 C305,327 309,322 312,316 C314,310 316,303 316,296 C316,289 314,282 311,276 C307,270 303,264 298,258 C292,252 287,246 280,241 C274,235 268,229 263,223 C252,213 246,201 244,190 C242,178 241,165 241,151 C241,151 264,151 264,151 C264,159 264,167 265,175 C265,183 267,190 272,197 C278,206 284,214 292,221 C300,228 307,235 315,242 C322,249 328,257 333,265 C338,273 341,283 341,294 C341,305 339,315 335,324 C331,333 325,341 318,347 zM239,80 L267,80 L267,114 L239,114 L239,80 z" /><glyph unicode="&#xe616;" d="M256,480 C115,480 0,365 0,224 C0,83 115,-32 256,-32 C397,-32 512,83 512,224 C512,365 397,480 256,480 zM256,-17 C123,-17 15,91 15,224 C15,357 123,465 256,465 C389,465 497,357 497,224 C497,91 389,-17 256,-17 zM211,146 L124,229 L111,216 L211,119 L404,318 L392,331 L211,146 z" /><glyph unicode="&#xe617;" d="M434,137 C390,175 309,191 309,191 C309,191 309,191 309,191 C308,191 299,191 252,191 C207,192 198,191 198,191 C198,191 113,168 73,137 C33,106 43,13 43,13 C43,-12 62,-32 87,-32 C87,-32 420,-32 420,-32 C444,-32 464,-12 464,13 C464,13 478,99 434,137 zM198,235 L198,235 C198,235 233,208 253,208 C274,208 309,235 309,235 C309,235 359,277 359,373 C359,469 287,480 253,480 C220,480 148,461 148,373 C148,286 198,235 198,235 z" /><glyph unicode="&#xe618;" d="M448,380 C448,380 64,380 64,380 C29,380 0,352 0,317 C0,317 0,130 0,130 C0,95 29,67 64,67 C64,67 448,67 448,67 C483,67 512,95 512,130 C512,130 512,317 512,317 C512,352 483,380 448,380 zM85,352 C85,352 427,352 427,352 C437,352 447,349 455,344 C455,344 256,211 256,211 C256,211 57,344 57,344 C65,349 75,352 85,352 zM484,147 C484,130 474,115 460,106 C460,106 310,192 310,192 L282,175 L421,95 L91,95 L231,176 L204,194 C204,194 52,106 52,106 C38,115 28,130 28,147 C28,147 28,300 28,300 C28,309 31,317 35,324 C35,324 252,179 252,179 L256,176 L260,179 C260,179 477,324 477,324 C481,317 484,309 484,300 C484,300 484,147 484,147 z" /><glyph unicode="&#xe619;" d="M358,137 L335,113 L475,2 L499,26 L358,137 zM201,446 C101,446 19,362 19,258 C19,154 101,70 201,70 C302,70 384,154 384,258 C384,362 302,446 201,446 zM201,104 C119,104 52,173 52,258 C52,343 119,412 201,412 C284,412 350,343 350,258 C350,173 284,104 201,104 z" /><glyph unicode="&#xe61a;" d="M256,480 C115,480 0,365 0,224 C0,83 115,-32 256,-32 C397,-32 512,83 512,224 C512,365 397,480 256,480 zM256,76 C174,76 108,142 108,224 C108,306 174,372 256,372 C338,372 404,306 404,224 C404,142 338,76 256,76 zM350,321 L256,237 L164,322 C164,322 162,321 161,320 C137,295 121,261 121,224 C121,150 182,89 256,89 C330,89 391,150 391,224 C391,260 377,293 353,317 C352,318 350,321 350,321 z" /><glyph unicode="&#xe61b;" d="M256,480 C115,480 0,365 0,224 C0,83 115,-32 256,-32 C397,-32 512,83 512,224 C512,365 397,480 256,480 zM350,211 L269,211 L269,130 L243,130 L243,211 L162,211 L162,237 L243,237 L243,318 L269,318 L269,237 L350,237 L350,211 z" /><glyph unicode="&#xe61c;" d="M256,480 C115,480 0,365 0,224 C0,83 115,-32 256,-32 C397,-32 512,83 512,224 C512,365 397,480 256,480 zM350,211 L243,211 L162,211 L162,237 L243,237 L350,237 L350,211 z" /><glyph unicode="&#xe61d;" d="M476,308 C448,341 410,360 373,360 C326,360 305,338 272,338 C238,338 212,360 170,360 C129,360 86,336 59,296 C20,238 27,130 89,38 C112,6 142,-31 181,-32 C215,-32 225,-10 272,-10 C320,-10 329,-32 363,-32 C403,-31 434,10 456,43 C473,66 479,78 491,105 C400,138 386,261 476,308 zM337,397 C355,418 368,449 363,480 C334,478 301,461 282,438 C264,417 250,387 255,357 C286,356 318,374 337,397 z" /><glyph unicode="&#xe61e;" d="M441,319 C424,319 410,305 410,288 C410,288 410,164 410,164 C410,147 424,132 441,132 C458,132 472,147 472,164 C472,164 472,288 472,288 C472,305 458,319 441,319 zM119,93 C119,79 130,68 143,68 C143,68 171,68 171,68 C171,68 171,0 171,0 C171,-18 184,-32 201,-32 C218,-32 232,-18 232,0 C232,0 232,68 232,68 L280,68 C280,68 280,0 280,0 C280,-18 294,-32 311,-32 C328,-32 342,-18 342,0 C342,0 342,68 342,68 C342,68 369,68 369,68 C382,68 393,79 393,93 C393,93 393,318 393,318 L119,318 C119,318 119,93 119,93 zM320,435 C320,435 346,472 346,472 C347,474 347,477 345,479 C343,480 340,479 339,477 C339,477 312,439 312,439 C295,445 276,449 255,449 C235,449 216,445 199,439 C199,439 172,477 172,477 C171,479 168,480 166,479 C164,477 164,474 165,472 C165,472 191,435 191,435 C150,416 122,380 119,338 C119,338 392,338 392,338 C389,380 361,416 320,435 zM198,377 C189,377 183,383 183,392 C183,400 189,407 198,407 C206,407 213,400 213,392 C213,383 206,377 198,377 zM315,377 C307,377 300,383 300,392 C300,400 307,407 315,407 C324,407 330,400 330,392 C330,383 324,377 315,377 zM70,319 C53,319 39,305 39,288 C39,288 39,164 39,164 C39,147 53,132 70,132 C87,132 101,147 101,164 C101,164 101,288 101,288 C101,305 87,319 70,319 z" /><glyph unicode="&#xe61f;" d="M496,120 C494,122 486,139 446,174 C404,210 410,204 460,267 C491,306 503,329 499,339 C496,349 473,347 473,347 L398,347 C398,347 393,348 388,346 C384,343 382,337 382,337 C382,337 370,307 354,282 C321,228 308,225 302,229 C289,237 293,260 293,276 C293,328 301,350 276,355 C268,357 262,359 241,359 C215,359 192,359 179,353 C171,349 164,340 168,340 C173,339 184,337 190,329 C198,319 198,297 198,297 C198,297 202,236 187,229 C177,223 163,234 134,282 C118,307 107,335 107,335 C107,335 105,340 101,343 C96,346 89,347 89,347 L18,347 C18,347 7,347 3,343 C0,339 3,331 3,331 C3,331 59,207 122,145 C180,88 246,91 246,91 L275,91 C275,91 284,92 289,97 C293,101 293,109 293,109 C293,109 292,147 311,153 C329,158 353,116 378,100 C396,88 411,91 411,91 L477,91 C477,91 512,94 496,120 z" /><glyph unicode="&#xe620;" d="M329,389 C334,389 384,389 384,389 L384,477 L319,480 C319,480 317,480 314,480 C254,480 201,450 201,370 C201,365 204,299 204,299 L128,297 L128,206 L201,206 L201,-32 L293,-32 L293,206 L366,206 L380,299 L293,299 C293,299 293,349 293,352 C293,386 301,389 329,389 z" /><glyph unicode="&#xe621;" d="M396,195 C385,213 361,219 343,207 C290,174 221,174 168,207 C150,219 126,213 115,195 C104,177 109,154 127,142 C151,127 176,117 203,111 C203,111 130,37 130,37 C115,22 115,-2 130,-17 C137,-24 147,-28 157,-28 C167,-28 177,-24 184,-17 C184,-17 255,55 255,55 C255,55 327,-17 327,-17 C342,-32 366,-32 381,-17 C396,-2 396,22 381,37 C381,37 308,111 308,111 C335,117 360,127 384,142 C402,154 407,177 396,195 zM255,218 C327,218 386,277 386,349 C386,421 327,480 255,480 C184,480 125,421 125,349 C125,277 184,218 255,218 zM255,403 C285,403 309,379 309,349 C309,319 285,295 255,295 C226,295 202,319 202,349 C202,379 226,403 255,403 z" /><glyph unicode="&#xe622;" d="M195,116 C195,158 161,192 119,192 C78,192 44,158 44,116 C44,74 78,40 119,40 C161,40 195,74 195,116 zM119,61 C89,61 65,86 65,116 C65,146 89,171 119,171 C150,171 174,146 174,116 C174,86 150,61 119,61 zM201,406 C204,401 204,395 204,395 C204,395 222,392 227,407 C231,423 211,437 206,432 C195,419 195,411 195,411 C195,411 198,411 201,406 zM266,441 C282,438 287,456 287,456 C287,456 282,458 279,463 C276,468 277,471 277,471 C277,471 270,475 254,470 C247,469 251,444 266,441 zM119,140 C106,140 95,129 95,116 C95,103 106,92 119,92 C133,92 143,103 143,116 C143,129 133,140 119,140 zM400,223 C400,223 402,225 402,225 C428,251 440,280 440,305 C440,389 379,456 337,475 C326,480 297,480 284,471 C278,466 285,459 302,462 C320,465 332,462 338,459 C385,431 486,315 370,240 C368,239 367,238 366,238 C257,163 194,297 185,349 C181,372 187,369 195,387 C201,398 195,406 185,397 C166,379 163,355 181,308 C194,275 222,230 253,207 C293,177 347,185 386,212 C397,200 452,134 432,67 C420,28 387,-1 345,-10 C288,-23 228,0 179,53 C179,53 166,41 166,41 C210,-6 262,-32 314,-32 C325,-32 337,-30 349,-28 C397,-17 434,17 448,61 C472,137 415,206 400,223 zM400,223 C400,223 402,225 402,225 C428,251 440,280 440,305 C440,389 379,456 337,475 C326,480 297,480 284,471 C278,466 285,459 302,462 C320,465 332,462 338,459 C385,431 486,315 370,240 C368,239 367,238 366,238 C257,163 194,297 185,349 C181,372 187,369 195,387 C201,398 195,406 185,397 C166,379 163,355 181,308 C194,275 222,230 253,207 C293,177 347,185 386,212 C397,200 452,134 432,67 C420,28 387,-1 345,-10 C288,-23 228,0 179,53 C179,53 166,41 166,41 C210,-6 262,-32 314,-32 C325,-32 337,-30 349,-28 C397,-17 434,17 448,61 C472,137 415,206 400,223 zM195,116 C195,158 161,192 119,192 C78,192 44,158 44,116 C44,74 78,40 119,40 C161,40 195,74 195,116 zM119,61 C89,61 65,86 65,116 C65,146 89,171 119,171 C150,171 174,146 174,116 C174,86 150,61 119,61 zM119,140 C106,140 95,129 95,116 C95,103 106,92 119,92 C133,92 143,103 143,116 C143,129 133,140 119,140 zM201,406 C204,401 204,395 204,395 C204,395 222,392 227,407 C231,423 211,437 206,432 C195,419 195,411 195,411 C195,411 198,411 201,406 zM266,441 C282,438 287,456 287,456 C287,456 282,458 279,463 C276,468 277,471 277,471 C277,471 270,475 254,470 C247,469 251,444 266,441 z" /><glyph unicode="&#xe623;" d="M256,480 C115,480 0,365 0,224 C0,83 115,-32 256,-32 C397,-32 512,83 512,224 C512,365 397,480 256,480 zM226,100 L123,204 L143,223 L227,139 L380,315 L399,296 L226,100 z" /><glyph unicode="&#xe624;" d="M256,480 C115,480 0,365 0,224 C0,83 115,-32 256,-32 C397,-32 512,83 512,224 C512,365 397,480 256,480 zM256,-22 C120,-22 10,88 10,224 C10,360 120,470 256,470 C392,470 502,360 502,224 C502,88 392,-22 256,-22 zM227,139 L143,223 L123,204 L226,101 L399,296 L380,315 L227,139 z" /><glyph unicode="&#xe625;" d="M256,480 C115,480 0,365 0,224 C0,83 115,-32 256,-32 C397,-32 512,83 512,224 C512,365 397,480 256,480 zM186,87 L186,361 L381,224 L186,87 z" /></font>
</defs>
</svg>
